<?xml version="1.0" encoding="UTF-8"?>
<!-- Generated by Pixelmator Pro 3.7 -->
<svg width="800" height="800" viewBox="0 0 800 800" xmlns="http://www.w3.org/2000/svg">
    <path id="Path" fill="#000000" stroke="none" d="M 454.584381 99.081238 C 454.584381 75.138306 435.175781 55.729675 411.233582 55.729675 L 382.332794 55.729675 C 358.389862 55.729675 338.981232 75.138306 338.981232 99.081238 L 338.981232 113.53125 L 454.584381 113.53125 L 454.584381 99.081238 Z M 396.782837 749.34845 C 532.454651 749.34845 642.439026 639.364075 642.439026 503.692169 C 642.439026 429.185944 609.269531 362.426575 556.892944 317.375 C 524.769531 289.746094 454.584381 142.4328 454.584381 142.4328 L 338.981232 142.4328 C 338.981232 142.4328 268.752319 289.971069 237.318726 316.822693 C 184.567993 361.878937 151.126587 428.8797 151.126587 503.692169 C 151.125732 639.363281 261.110901 749.34845 396.782837 749.34845 Z M 256.078918 339.412506 C 283.81485 315.758606 345.781281 171.332764 345.781281 171.332764 L 382.332031 171.332764 L 382.332031 353.342957 L 314.221863 421.453125 C 308.617981 427.058594 308.617981 436.144531 314.221863 441.748444 C 319.825775 447.352356 328.912476 447.352356 334.517181 441.748444 L 396.712494 379.553131 L 481.005463 463.8461 C 486.649994 469.490631 495.798431 469.490631 501.441406 463.8461 C 507.085938 458.203125 507.085938 449.054688 501.441406 443.410156 L 413.713287 355.682037 C 412.946899 354.915619 412.111725 354.262512 411.233582 353.704712 L 411.233582 171.332764 L 447.784363 171.332764 C 447.784363 171.332764 509.713287 315.559387 538.056213 339.8992 C 584.272644 379.587524 613.539063 438.398438 613.539063 504.035156 C 613.539063 623.555481 516.494507 720.446899 396.783569 720.446899 C 277.072632 720.446899 180.028137 623.555481 180.028137 504.035156 C 180.02655 438.130493 209.534363 379.104675 256.078918 339.412506 Z"/>
</svg>
