<?xml version="1.0" encoding="UTF-8"?>
<!-- Generated by Pixelmator Pro 3.7 -->
<svg width="800" height="800" viewBox="0 0 800 800" xmlns="http://www.w3.org/2000/svg">
    <g id="Group">
        <g id="g1">
            <path id="Path" fill="#currentColor" stroke="none" d="M 119.239136 518.841797 C 119.239136 678.762634 253.651184 808.105591 415.207214 799.602661 C 561.55603 791.099731 677.326965 670.259705 680.760864 523.910889 C 680.760864 450.818207 653.616821 382.794586 605.869507 329.97821 C 527.871277 246.420349 537.845886 149.617554 537.845886 149.617554 C 537.845886 130.976501 522.47522 115.605774 503.834076 115.605774 L 296.329437 115.605774 C 277.688354 115.605774 262.317627 130.976501 260.682434 149.617554 C 260.682434 149.617554 272.128723 243.96759 194.294067 328.179504 C 146.546692 379.360718 119.239136 447.384308 119.239136 518.841797 Z M 328.542511 181.994202 L 471.457458 181.994202 C 474.891357 251.816467 505.469269 319.840057 554.851807 372.492981 C 592.297485 413.372528 610.938538 466.025421 610.938538 520.47699 C 609.303406 632.814026 522.47522 724.547791 410.138123 731.415527 C 287.662903 738.283325 185.627563 639.51825 185.627563 518.841797 C 185.627563 466.025421 206.067322 413.372528 243.513 374.291687 C 294.530731 319.840057 325.108643 251.816467 328.542511 181.994202 Z"/>
            <path id="path1" fill="#currentColor" stroke="none" d="M 340.47937 68.021973 L 461.319336 68.021973 C 479.960449 68.021973 495.331146 52.651245 495.331146 34.010193 C 495.331146 15.36908 479.960449 -0.001648 461.319336 -0.001648 L 340.47937 -0.001648 C 321.838287 -0.001648 306.467529 15.36908 306.467529 34.010193 C 306.467529 52.651245 321.674774 68.021973 340.47937 68.021973 Z"/>
        </g>
    </g>
</svg>
